<svg width="16.000000" height="17.000000" viewBox="0 0 16 17" fill="none" xmlns="http://www.w3.org/2000/svg" xmlns:xlink="http://www.w3.org/1999/xlink">
	<desc>
			Created with Pixso.
	</desc>
	<defs/>
	<path d="M15.2526 7.09683C15.1738 6.41663 14.8484 5.78549 14.3345 5.3158C13.8206 4.8461 13.1515 4.56824 12.446 4.53159L12.446 4.33163C12.4466 3.76273 12.3312 3.19937 12.1063 2.67377C11.8815 2.14819 11.5517 1.67081 11.1359 1.2691C10.7209 0.866211 10.2278 0.546722 9.68507 0.328918C9.1423 0.111115 8.5605 -0.000671387 7.97301 0C6.7871 0.000427246 5.64993 0.457001 4.81136 1.26941C3.97278 2.08182 3.50151 3.18359 3.50108 4.33252L3.50108 4.5347C2.80495 4.58261 2.14802 4.86536 1.6447 5.33371C1.14137 5.80206 0.823479 6.42645 0.745991 7.09839L0 13.682C0.003685 14.5648 0.368801 15.41 1.01524 16.0321C1.66168 16.6542 2.53674 17.0023 3.4479 17L12.5523 17C13.4635 17.0023 14.3383 16.6542 14.9848 16.0321C15.6312 15.41 15.9963 14.5648 16 13.682L15.2526 7.09683ZM4.81435 4.3396C4.81424 3.93774 4.89577 3.53983 5.05442 3.16858C5.21307 2.7973 5.44579 2.45996 5.73904 2.17581C6.0323 1.89163 6.38029 1.66614 6.76348 1.51233C7.14667 1.35855 7.55744 1.27948 7.97221 1.27948C8.38708 1.27908 8.79786 1.35803 9.18115 1.51187C9.56444 1.66568 9.91272 1.89124 10.2058 2.17569C10.4996 2.45956 10.7325 2.79684 10.8914 3.16818C11.0503 3.53952 11.132 3.93762 11.1317 4.3396L11.1317 4.52521L4.81435 4.52521L4.81435 4.3396ZM5.43741 8.8403C5.33319 8.84039 5.22988 8.82059 5.13358 8.78201C5.03727 8.74341 4.94981 8.68677 4.87612 8.61536C4.80243 8.54398 4.74405 8.45923 4.70421 8.36594C4.66438 8.27264 4.64394 8.17264 4.64405 8.07169C4.64394 7.9707 4.66438 7.87073 4.70421 7.77744C4.74405 7.68411 4.80243 7.5993 4.87612 7.52789C4.94981 7.45651 5.03727 7.39996 5.13358 7.36136C5.22988 7.32278 5.33319 7.30298 5.43741 7.30307C5.54177 7.30286 5.64515 7.32254 5.74164 7.36108C5.83813 7.3996 5.92579 7.45615 5.9997 7.52753C6.07361 7.59891 6.13234 7.68369 6.17241 7.77704C6.21247 7.87039 6.23306 7.97058 6.23317 8.07169C6.23306 8.17279 6.21247 8.27286 6.17241 8.36624C6.13234 8.45959 6.07361 8.54437 5.9997 8.61575C5.92579 8.68713 5.83813 8.74368 5.74164 8.7822C5.64515 8.82071 5.54177 8.84052 5.43741 8.8403ZM10.5644 8.8403C10.46 8.84052 10.3566 8.82071 10.2602 8.7822C10.1637 8.74368 10.076 8.68713 10.0021 8.61575C9.92819 8.54437 9.86946 8.45959 9.82939 8.36624C9.78933 8.27286 9.76873 8.17279 9.76863 8.07169C9.76873 7.97058 9.78933 7.87039 9.82939 7.77704C9.86946 7.68369 9.92819 7.59891 10.0021 7.52753C10.076 7.45615 10.1637 7.3996 10.2602 7.36108C10.3566 7.32254 10.46 7.30286 10.5644 7.30307C10.6686 7.30298 10.7717 7.32278 10.868 7.36136C10.9643 7.39996 11.052 7.45651 11.1257 7.52789C11.1994 7.5993 11.2578 7.68411 11.2976 7.77744C11.3374 7.87073 11.3579 7.9707 11.3578 8.07169C11.3579 8.17264 11.3374 8.27264 11.2976 8.36594C11.2578 8.45923 11.1994 8.54398 11.1257 8.61536C11.052 8.68677 10.9643 8.74341 10.868 8.78201C10.7717 8.82059 10.6686 8.84039 10.5644 8.8403Z" fill="#FFFFFF" fill-opacity="1.000000" fill-rule="nonzero"/>
</svg>
