<svg width="23.000000" height="23.000000" viewBox="0 0 23 23" fill="none" xmlns="http://www.w3.org/2000/svg" xmlns:xlink="http://www.w3.org/1999/xlink">
	<desc>
			Created with Pixso.
	</desc>
	<defs/>
	<rect width="23.000000" height="23.000000" fill="#D3D1D8" fill-opacity="0"/>
	<path d="M20.2526 11.0968C20.1738 10.4166 19.8484 9.7855 19.3345 9.3158C18.8206 8.84609 18.1515 8.56825 17.446 8.53159L17.446 8.33165C17.4467 7.76273 17.3312 7.19936 17.1063 6.67378C16.8815 6.1482 16.5518 5.6708 16.1359 5.26911C15.7209 4.8662 15.2278 4.54671 14.6851 4.32893C14.1423 4.11113 13.5605 3.99934 12.973 4C11.7871 4.00042 10.6499 4.45699 9.81134 5.2694C8.97278 6.08181 8.50153 7.1836 8.5011 8.33252L8.5011 8.53469C7.80493 8.58262 7.14801 8.86536 6.64471 9.33371C6.14136 9.80206 5.82349 10.4265 5.74597 11.0984L5 17.682C5.00366 18.5648 5.36877 19.41 6.01526 20.0321C6.66168 20.6542 7.53674 21.0023 8.44788 21L17.5523 21C18.4634 21.0023 19.3383 20.6542 19.9847 20.0321C20.6312 19.41 20.9963 18.5648 21 17.682L20.2526 11.0968ZM9.81433 8.33958C9.81427 7.93776 9.89575 7.53984 10.0544 7.16856C10.2131 6.79729 10.4458 6.45998 10.739 6.1758C11.0323 5.89162 11.3803 5.66614 11.7635 5.51234C12.1467 5.35854 12.5574 5.27947 12.9722 5.27947C13.3871 5.27908 13.7979 5.35805 14.1812 5.51186C14.5645 5.66567 14.9127 5.89122 15.2058 6.1757C15.4996 6.45956 15.7325 6.79684 15.8914 7.16817C16.0503 7.53951 16.132 7.93761 16.1317 8.33958L16.1317 8.52521L9.81433 8.52521L9.81433 8.33958ZM10.4374 12.8403C10.3332 12.8404 10.2299 12.8206 10.1336 12.782C10.0373 12.7434 9.94983 12.6868 9.8761 12.6154C9.80243 12.544 9.74402 12.4592 9.70422 12.3659C9.66437 12.2726 9.64392 12.1726 9.64404 12.0717C9.64392 11.9707 9.66437 11.8707 9.70422 11.7774C9.74402 11.6841 9.80243 11.5993 9.8761 11.5279C9.94983 11.4565 10.0373 11.3999 10.1336 11.3614C10.2299 11.3228 10.3332 11.303 10.4374 11.3031C10.5417 11.3029 10.6451 11.3225 10.7416 11.3611C10.8381 11.3996 10.9258 11.4561 10.9997 11.5275C11.0736 11.5989 11.1323 11.6837 11.1724 11.777C11.2125 11.8704 11.2331 11.9706 11.2332 12.0717C11.2331 12.1728 11.2125 12.2729 11.1724 12.3662C11.1323 12.4596 11.0736 12.5444 10.9997 12.6158C10.9258 12.6871 10.8381 12.7437 10.7416 12.7822C10.6451 12.8207 10.5417 12.8405 10.4374 12.8403ZM15.5644 12.8403C15.46 12.8405 15.3566 12.8207 15.2601 12.7822C15.1637 12.7437 15.076 12.6871 15.0021 12.6158C14.9282 12.5444 14.8694 12.4596 14.8294 12.3662C14.7893 12.2729 14.7687 12.1728 14.7686 12.0717C14.7687 11.9706 14.7893 11.8704 14.8294 11.777C14.8694 11.6837 14.9282 11.5989 15.0021 11.5275C15.076 11.4561 15.1637 11.3996 15.2601 11.3611C15.3566 11.3225 15.46 11.3029 15.5644 11.3031C15.6686 11.303 15.7717 11.3228 15.868 11.3614C15.9644 11.3999 16.052 11.4565 16.1257 11.5279C16.1994 11.5993 16.2578 11.6841 16.2976 11.7774C16.3374 11.8707 16.3578 11.9707 16.3577 12.0717C16.3578 12.1726 16.3374 12.2726 16.2976 12.3659C16.2578 12.4592 16.1994 12.544 16.1257 12.6154C16.052 12.6868 15.9644 12.7434 15.868 12.782C15.7717 12.8206 15.6686 12.8404 15.5644 12.8403Z" fill="#D5D5D9" fill-opacity="1.000000" fill-rule="nonzero"/>
	<circle cx="10.500000" cy="12.500000" r="1.500000" fill="#9796A1" fill-opacity="1.000000"/>
	<circle cx="15.500000" cy="12.500000" r="1.500000" fill="#9796A1" fill-opacity="1.000000"/>
</svg>
