<svg width="26.000000" height="26.000000" viewBox="0 0 26 26" fill="none" xmlns="http://www.w3.org/2000/svg" xmlns:xlink="http://www.w3.org/1999/xlink">
	<desc>
			Created with Pixso.
	</desc>
	<defs/>
	<circle cx="13.000000" cy="13.000000" r="13.000000" fill="#FFFFFF" fill-opacity="1.000000"/>
	<path d="M20.7391 12.9801C20.7068 10.7158 19.9282 8.77536 18.3973 7.168C18.3534 7.12216 18.3124 7.07022 18.2685 7.02133C17.7358 6.41934 16.843 6.30933 16.2019 6.77075C15.5462 7.24133 15.3208 8.11835 15.6896 8.84869C15.7775 9.02591 15.9092 9.18787 16.0468 9.32538C17.3932 10.6883 17.9202 12.3231 17.446 14.233C16.9922 16.0573 15.8389 17.2521 14.1236 17.7961C12.458 18.3216 10.9037 17.9916 9.55127 16.8549C8.39209 15.8831 7.79791 14.5814 7.7774 13.0259C7.75983 11.7975 8.16962 10.7127 8.93365 9.77765C9.03027 9.65848 9.16199 9.56985 9.2644 9.45679C9.6947 8.99231 9.81183 8.43921 9.62738 7.83417C9.43713 7.22299 9.00977 6.85632 8.40674 6.73407C7.93549 6.63934 7.51105 6.7677 7.13049 7.07327C6.46307 7.60498 6.00934 8.31393 5.60834 9.06259C4.91168 10.3643 4.59845 11.77 4.64819 13.2582C4.70679 15.0733 5.28345 16.6929 6.36938 18.1108C7.39685 19.4492 8.69067 20.3996 10.2626 20.8793C12.9176 21.6922 15.394 21.2644 17.6187 19.5226C19.0647 18.3919 20.0131 16.8885 20.4815 15.0672C20.66 14.3858 20.7361 13.6891 20.7391 12.9801Z" fill="#FE724C" fill-opacity="1.000000" fill-rule="nonzero"/>
	<path d="M20.7391 12.9801C20.7068 10.7158 19.9282 8.77536 18.3973 7.168C18.3534 7.12216 18.3124 7.07022 18.2685 7.02133C17.7358 6.41934 16.843 6.30933 16.2019 6.77075C15.5462 7.24133 15.3208 8.11835 15.6896 8.84869C15.7775 9.02591 15.9092 9.18787 16.0468 9.32538C17.3932 10.6883 17.9202 12.3231 17.446 14.233C16.9922 16.0573 15.8389 17.2521 14.1236 17.7961C12.458 18.3216 10.9037 17.9916 9.55127 16.8549C8.39209 15.8831 7.79791 14.5814 7.7774 13.0259C7.75983 11.7975 8.16962 10.7127 8.93365 9.77765C9.03027 9.65848 9.16199 9.56985 9.2644 9.45679C9.6947 8.99231 9.81183 8.43921 9.62738 7.83417C9.43713 7.22299 9.00977 6.85632 8.40674 6.73407C7.93549 6.63934 7.51105 6.7677 7.13049 7.07327C6.46307 7.60498 6.00934 8.31393 5.60834 9.06259C4.91168 10.3643 4.59845 11.77 4.64819 13.2582C4.70679 15.0733 5.28345 16.6929 6.36938 18.1108C7.39685 19.4492 8.69067 20.3996 10.2626 20.8793C12.9176 21.6922 15.394 21.2644 17.6187 19.5226C19.0647 18.3919 20.0131 16.8885 20.4815 15.0672C20.66 14.3858 20.7361 13.6891 20.7391 12.9801ZM19.299 9.91602Q18.7737 8.72324 17.8182 7.71994L17.818 7.71976Q17.7762 7.6759 17.7119 7.60049Q17.6841 7.5679 17.6733 7.55585Q17.5559 7.42325 17.4087 7.35553Q17.3018 7.30634 17.1791 7.29138Q17.0262 7.27277 16.8899 7.31171Q16.7736 7.34494 16.6693 7.42004Q16.535 7.51639 16.4504 7.64529Q16.3737 7.76227 16.3378 7.90607Q16.3012 8.05243 16.3156 8.1936Q16.3309 8.34375 16.4037 8.48807Q16.4657 8.61301 16.6123 8.75955Q17.7834 9.94495 18.1966 11.3481Q18.2646 11.5793 18.3117 11.8147Q18.5612 13.0614 18.2224 14.4258Q17.8772 15.8138 17.0532 16.8028Q16.9506 16.9259 16.8406 17.0428Q16.697 17.1954 16.5424 17.3358Q15.6416 18.1539 14.3654 18.5586Q13.1691 18.9362 12.0298 18.8076Q11.7924 18.7809 11.5574 18.7321Q11.4505 18.71 11.3447 18.6833Q10.1155 18.3741 9.0365 17.4673Q8.28082 16.8337 7.79797 16.0352Q7.63983 15.7737 7.51099 15.4945Q7.49713 15.4646 7.4837 15.4345Q6.99463 14.341 6.97748 13.0365Q6.96637 12.2602 7.15179 11.5341Q7.21832 11.2738 7.31006 11.0199Q7.64673 10.0883 8.31415 9.27148Q8.40735 9.15649 8.58484 8.99976Q8.65546 8.93741 8.67157 8.91962Q8.85107 8.72577 8.8952 8.52582Q8.94 8.32285 8.86212 8.06741Q8.78833 7.83041 8.63995 7.69836Q8.49341 7.5679 8.2478 7.51813Q8.09387 7.48718 7.95679 7.52225Q7.95172 7.52356 7.94666 7.52493Q7.79315 7.56714 7.63141 7.69705Q7.2514 7.99979 6.91498 8.45923Q6.63232 8.84521 6.31354 9.44034Q5.96136 10.0984 5.75165 10.7991Q5.40515 11.9571 5.44775 13.2314Q5.4906 14.5602 5.93994 15.7332Q6.32385 16.7356 7.00452 17.6243Q8.03186 18.9626 9.38843 19.6641Q9.91724 19.9375 10.4962 20.1142Q12.3406 20.6789 14.0161 20.359Q15.6512 20.047 17.1255 18.8927Q17.8424 18.3321 18.3824 17.6346Q19.3001 16.4491 19.7067 14.868Q19.9349 13.9971 19.9391 12.9768Q19.9154 11.3159 19.299 9.91602Z" fill="#FFFFFF" fill-opacity="1.000000" fill-rule="evenodd"/>
	<path d="M14.2699 8.00534C14.2699 6.8808 14.2728 6.48807 14.2699 5.36353C14.267 4.72183 13.9801 4.23596 13.4474 3.93036C12.9263 3.63089 12.3818 3.64313 11.8725 3.96399C11.3837 4.26956 11.1115 4.73709 11.1115 5.33908C11.1056 7.60037 11.1056 8.39502 11.1115 10.6563C11.1144 11.4967 11.7261 12.1934 12.5223 12.2728C13.3478 12.3584 14.0855 11.8022 14.2494 10.9649C14.2728 10.8458 14.2758 10.7235 14.2758 10.6013C14.2699 9.49207 14.2699 9.11459 14.2699 8.00534Z" fill="#FE724C" fill-opacity="1.000000" fill-rule="nonzero"/>
	<path d="M14.2699 8.00534C14.2699 7.59857 14.2703 7.28757 14.2706 7.00302C14.2712 6.50095 14.2718 6.0813 14.2699 5.36353C14.267 4.72183 13.9801 4.23596 13.4474 3.93036C12.9263 3.63089 12.3818 3.64313 11.8725 3.96399C11.3837 4.26956 11.1115 4.73709 11.1115 5.33908C11.1056 7.60037 11.1056 8.39502 11.1115 10.6563C11.1144 11.4967 11.7261 12.1934 12.5223 12.2728C13.3478 12.3584 14.0855 11.8022 14.2494 10.9649C14.2728 10.8458 14.2758 10.7235 14.2758 10.6013C14.2699 9.49207 14.2699 9.11462 14.2699 8.0054L14.2699 8.00534ZM13.471 6.68378L13.4699 5.36588Q13.4684 5.10071 13.3647 4.9213Q13.2643 4.74765 13.0493 4.62433Q12.8513 4.5105 12.6729 4.51437Q12.4936 4.51825 12.299 4.64087Q12.0997 4.76544 12.0065 4.93167Q11.9114 5.10107 11.9114 5.33908L11.907 7.99902L11.9114 10.655Q11.9121 10.8436 11.981 11.0027Q12.0324 11.1212 12.1216 11.2233Q12.2382 11.3566 12.3851 11.4209Q12.4863 11.4652 12.6018 11.4768Q12.7734 11.4946 12.924 11.4464Q13.0444 11.4078 13.1514 11.3269Q13.2432 11.2575 13.3098 11.1692Q13.4238 11.018 13.4643 10.8112Q13.4758 10.753 13.4758 10.6013L13.4706 9.30649L13.4699 8.0058L13.471 6.68378Z" fill="#FFFFFF" fill-opacity="1.000000" fill-rule="evenodd"/>
</svg>
