<svg width="23.000000" height="23.000000" viewBox="0 0 23 23" fill="none" xmlns="http://www.w3.org/2000/svg" xmlns:xlink="http://www.w3.org/1999/xlink">
	<desc>
			Created with Pixso.
	</desc>
	<defs/>
	<rect width="23.000000" height="23.000000" fill="#D3D1D8" fill-opacity="0"/>
	<g opacity="0.400000">
		<path d="M15.5164 1.91667L7.48456 1.91667C4.57123 1.91667 2.875 3.6225 2.875 6.54543L2.875 16.445C2.875 19.4158 4.57123 21.0833 7.48456 21.0833L15.5164 21.0833C18.4767 21.0833 20.125 19.4158 20.125 16.445L20.125 6.54543C20.125 3.6225 18.4767 1.91667 15.5164 1.91667Z" fill="#9796A1" fill-opacity="1.000000" fill-rule="nonzero"/>
	</g>
	<path d="M7.74304 6.37274L7.74304 6.38232C7.32996 6.38232 6.99554 6.71774 6.99554 7.12982C6.99554 7.54192 7.32996 7.87732 7.74304 7.87732L10.6075 7.87732C11.0205 7.87732 11.356 7.54192 11.356 7.11928C11.356 6.70816 11.0205 6.37274 10.6075 6.37274L7.74304 6.37274ZM15.2563 12.209L7.74304 12.209C7.32996 12.209 6.99554 11.8736 6.99554 11.4615C6.99554 11.0495 7.32996 10.7131 7.74304 10.7131L15.2563 10.7131C15.6685 10.7131 16.0038 11.0495 16.0038 11.4615C16.0038 11.8736 15.6685 12.209 15.2563 12.209ZM15.2565 16.5885L7.74316 16.5885C7.45569 16.6269 7.17773 16.4831 7.02441 16.2435C6.87109 15.9944 6.87109 15.6781 7.02441 15.4385C7.17773 15.1894 7.45569 15.0552 7.74316 15.0839L15.2565 15.0839C15.6389 15.1223 15.9274 15.4481 15.9274 15.841C15.9274 16.2234 15.6389 16.5502 15.2565 16.5885Z" clip-rule="evenodd" fill="#9796A1" fill-opacity="1.000000" fill-rule="evenodd"/>
</svg>
